<?xml version="1.0" encoding="UTF-8" standalone="no"?>
<!DOCTYPE svg PUBLIC "-//W3C//DTD SVG 1.1//EN" "http://www.w3.org/Graphics/SVG/1.1/DTD/svg11.dtd">
<svg width="100%" height="100%" viewBox="0 0 800 800" version="1.1" xmlns="http://www.w3.org/2000/svg" xmlns:xlink="http://www.w3.org/1999/xlink" xml:space="preserve" xmlns:serif="http://www.serif.com/" style="fill-rule:evenodd;clip-rule:evenodd;stroke-linecap:round;stroke-linejoin:round;">
    <g transform="matrix(33.3333,0,0,33.3333,0,0)">
        <path d="M6,8L4,8M6,16L4,16M6,12L3,12M7,4.516C8.43,3.558 10.15,3 12,3C16.971,3 21,7.029 21,12C21,16.971 16.971,21 12,21C10.15,21 8.43,20.442 7,19.485M14,9.5C13.5,9.376 12.685,9.371 12,9.376M12,9.376C11.771,9.377 11.909,9.368 11.6,9.376C10.793,9.401 10.002,9.737 10,10.687C9.998,11.7 11,12 12,12C13,12 14,12.231 14,13.312C14,14.125 13.193,14.481 12.186,14.599C12.122,14.599 12.06,14.599 12,14.599M12,9.376L12,8M12,14.599C11.32,14.602 10.919,14.615 10,14.5M12,14.599L12,16" style="fill:none;fill-rule:nonzero;stroke:rgb(238,238,238);stroke-width:2px;"/>
    </g>
</svg>
